<svg width="16" height="15" viewBox="0 0 16 15" fill="none" xmlns="http://www.w3.org/2000/svg">
<path d="M1.32434 14.5H15.1757" stroke="#EB3959" stroke-linecap="round" stroke-linejoin="round"/>
<path d="M3.00407 10.0998C2.80541 10.2916 2.79986 10.6081 2.99166 10.8068C3.18347 11.0054 3.5 11.011 3.69866 10.8192L3.00407 10.0998ZM13.6486 1.00877C13.6534 0.732671 13.4335 0.504921 13.1574 0.500077L8.65812 0.421142C8.38202 0.416298 8.15427 0.636194 8.14943 0.912294C8.14459 1.18839 8.36448 1.41614 8.64058 1.42099L12.64 1.49115L12.5698 5.49054C12.565 5.76664 12.7849 5.99439 13.061 5.99923C13.3371 6.00407 13.5648 5.78418 13.5696 5.50808L13.6486 1.00877ZM3.69866 10.8192L8.59731 6.08943L7.90272 5.37003L3.00407 10.0998L3.69866 10.8192ZM8.59731 6.08943L13.496 1.3597L12.8014 0.640299L7.90272 5.37003L8.59731 6.08943Z" fill="#EB3959"/>
</svg>
