<svg width="16" height="15" viewBox="0 0 16 15" fill="none" xmlns="http://www.w3.org/2000/svg">
<path d="M1.32434 4C1.0482 4 0.824341 4.22386 0.824341 4.5C0.824341 4.77614 1.0482 5 1.32434 5V4ZM15.5292 4.85355C15.7245 4.65829 15.7245 4.34171 15.5292 4.14645L12.3473 0.964466C12.152 0.769204 11.8354 0.769204 11.6402 0.964466C11.4449 1.15973 11.4449 1.47631 11.6402 1.67157L14.4686 4.5L11.6402 7.32843C11.4449 7.52369 11.4449 7.84027 11.6402 8.03553C11.8354 8.2308 12.152 8.2308 12.3473 8.03553L15.5292 4.85355ZM1.32434 5H15.1757V4H1.32434V5Z" fill="#6356F5"/>
<path d="M0.970787 10.6464C0.775525 10.8417 0.775525 11.1583 0.970787 11.3536L4.15277 14.5355C4.34803 14.7308 4.66461 14.7308 4.85987 14.5355C5.05514 14.3403 5.05514 14.0237 4.85987 13.8284L2.03145 11L4.85987 8.17157C5.05514 7.97631 5.05514 7.65973 4.85987 7.46447C4.66461 7.2692 4.34803 7.2692 4.15277 7.46447L0.970787 10.6464ZM15.1757 11.5C15.4518 11.5 15.6757 11.2761 15.6757 11C15.6757 10.7239 15.4518 10.5 15.1757 10.5V11.5ZM1.32434 11.5H15.1757V10.5H1.32434V11.5Z" fill="#6356F5"/>
</svg>
