<svg width="13" height="14" viewBox="0 0 13 14" fill="none" xmlns="http://www.w3.org/2000/svg">
<path d="M6.31787 4.16187V6.69133L7.89247 7.95607" stroke="#00E6CC" stroke-width="1.25" stroke-linecap="round" stroke-linejoin="round"/>
<path d="M3.78852 9.35693H0.942871V12.2026" stroke="#00E6CC" stroke-width="1.25" stroke-linecap="round" stroke-linejoin="round"/>
<path d="M1.89142 10.28C2.68527 11.2571 3.78071 11.9435 5.00626 12.2316C6.23182 12.5197 7.51831 12.3933 8.66437 11.8722C9.81043 11.3511 10.7514 10.4647 11.3399 9.35178C11.9284 8.23884 12.1313 6.96217 11.9168 5.72161C11.7023 4.48106 11.0825 3.34664 10.1544 2.49593C9.22637 1.64522 8.04244 1.12624 6.78795 1.02022C5.53345 0.914205 4.27921 1.22714 3.22156 1.91004C2.1639 2.59294 1.36252 3.60725 0.942871 4.79422" stroke="#00E6CC" stroke-width="1.25" stroke-linecap="round" stroke-linejoin="round"/>
</svg>
