<svg width="16" height="15" viewBox="0 0 16 15" fill="none" xmlns="http://www.w3.org/2000/svg">
<path d="M1.32434 14.5H15.1757" stroke="#4CD7E0" stroke-linecap="round" stroke-linejoin="round"/>
<path d="M2.85144 10.4507C2.8466 10.7268 3.06649 10.9545 3.34259 10.9594L7.8419 11.0383C8.118 11.0432 8.34575 10.8233 8.35059 10.5472C8.35544 10.2711 8.13554 10.0433 7.85944 10.0385L3.86006 9.96831L3.93022 5.96892C3.93507 5.69282 3.71517 5.46507 3.43907 5.46023C3.16297 5.45538 2.93522 5.67528 2.93038 5.95138L2.85144 10.4507ZM13.496 1.3597C13.6946 1.16789 13.7002 0.85136 13.5084 0.652703C13.3166 0.454046 13 0.448492 12.8014 0.640299L13.496 1.3597ZM3.69866 10.8192L8.59731 6.08943L7.90272 5.37003L3.00407 10.0998L3.69866 10.8192ZM8.59731 6.08943L13.496 1.3597L12.8014 0.640299L7.90272 5.37003L8.59731 6.08943Z" fill="#4CD7E0"/>
</svg>
