<svg width="28" height="28" viewBox="0 0 28 28" fill="none" xmlns="http://www.w3.org/2000/svg">
<rect width="28" height="28" rx="14" fill="#ECE8EF"/>
<mask id="mask0" mask-type="alpha" maskUnits="userSpaceOnUse" x="0" y="0" width="28" height="28">
<rect width="28" height="28" rx="14" fill="#ECE8EF"/>
</mask>
<g mask="url(#mask0)">
<path fill-rule="evenodd" clip-rule="evenodd" d="M8.18791 16.4799C8.94851 15.7193 9.98011 15.292 11.0558 15.292H17.1673C18.243 15.292 19.2746 15.7193 20.0352 16.4799C20.7958 17.2405 21.2231 18.2721 21.2231 19.3478V20.8757C21.2231 21.4279 20.7754 21.8757 20.2231 21.8757C19.6708 21.8757 19.2231 21.4279 19.2231 20.8757V19.3478C19.2231 18.8025 19.0065 18.2796 18.621 17.8941C18.2354 17.5086 17.7125 17.292 17.1673 17.292H11.0558C10.5105 17.292 9.98765 17.5086 9.60212 17.8941C9.21659 18.2796 9 18.8025 9 19.3478V20.8757C9 21.4279 8.55228 21.8757 8 21.8757C7.44772 21.8757 7 21.4279 7 20.8757V19.3478C7 18.2721 7.4273 17.2405 8.18791 16.4799Z" fill="#DBD6DF"/>
<path fill-rule="evenodd" clip-rule="evenodd" d="M14.1114 8.12451C12.9761 8.12451 12.0557 9.04491 12.0557 10.1803C12.0557 11.3157 12.9761 12.2361 14.1114 12.2361C15.2468 12.2361 16.1672 11.3157 16.1672 10.1803C16.1672 9.04491 15.2468 8.12451 14.1114 8.12451ZM10.0557 10.1803C10.0557 7.94034 11.8715 6.12451 14.1114 6.12451C16.3514 6.12451 18.1672 7.94034 18.1672 10.1803C18.1672 12.4202 16.3514 14.2361 14.1114 14.2361C11.8715 14.2361 10.0557 12.4202 10.0557 10.1803Z" fill="#DBD6DF"/>
</g>
</svg>
