<svg width="117" height="37" viewBox="0 0 117 37" fill="none" xmlns="http://www.w3.org/2000/svg">
<path d="M45.4 5.73599C45.4 5.73599 43.496 5.71999 43.384 5.71999C43.384 5.71999 43.32 5.71999 43.336 5.84799C43.352 5.95999 44.36 10.616 44.616 11.752C44.84 12.872 45.672 16.616 45.736 16.904C45.736 16.904 45.752 17 45.912 17C45.912 17 48.024 17.032 48.104 17.016C48.168 17 48.184 16.968 48.2 16.888C48.216 16.792 49.448 10.568 49.48 10.456C49.48 10.456 49.544 10.264 49.576 10.52C49.624 10.76 50.152 12.824 50.344 13.816C50.52 14.84 51 16.936 51 16.936C51 16.936 51 17.016 51.144 17.016C51.32 17.016 53.336 17.032 53.4 17.016C53.4 17.016 53.416 17.048 53.448 16.872C53.448 16.872 54.824 10.392 54.904 10.024C54.968 9.68799 55.912 5.12799 56.024 4.64799C56.024 4.64799 56.12 4.55199 55.976 4.45599C55.832 4.37599 54.424 3.63999 54.28 3.60799C54.28 3.60799 54.136 3.55999 54.104 3.78399C54.056 4.02399 53.08 8.91999 53 9.33599C52.888 9.75199 52.36 12.44 52.328 12.568C52.328 12.568 52.28 12.648 52.248 12.504C52.2 12.344 50.824 6.08799 50.808 5.87999C50.808 5.87999 50.808 5.78399 50.648 5.78399C50.504 5.78399 48.568 5.78399 48.504 5.78399C48.504 5.78399 48.44 5.71999 48.408 5.87999C48.376 6.07199 47.928 8.29599 47.736 9.15999C47.544 10.008 47.112 11.992 47.064 12.328C47.064 12.328 47 12.488 46.952 12.296C46.904 12.104 46.376 9.97599 46.216 9.14399C46.072 8.31199 45.56 6.02399 45.528 5.83199C45.528 5.83199 45.496 5.71999 45.4 5.73599Z" fill="white"/>
<path d="M63.6616 18.072C63.5976 17.832 63.2456 16.312 63.1816 16.024C63.1016 15.736 62.6216 13.736 62.6056 13.672C62.5736 13.608 62.6056 13.576 62.6536 13.544C62.7016 13.512 63.4696 13.144 63.4696 13.144C63.4696 13.144 63.5496 13.144 63.5496 12.936C63.5496 12.712 63.5336 12.184 63.5336 12.056C63.5496 11.912 63.5496 11.192 63.5496 11.144C63.5496 11.08 63.5496 11.08 63.4376 11.112C63.3416 11.144 62.3816 11.576 62.3016 11.592C62.2376 11.592 62.1576 11.72 62.1096 11.512C62.0456 11.288 61.4536 8.63199 61.3896 8.39199C61.3256 8.13599 60.8776 6.10399 60.8456 6.00799C60.8296 5.89599 60.7976 5.81599 60.6216 5.81599C60.4296 5.81599 58.7656 5.83199 58.5736 5.79999C58.3656 5.78399 57.7256 5.79999 57.6456 5.79999C57.5816 5.79999 57.5016 5.81599 57.4696 5.92799C57.4376 6.02399 56.5576 10.232 56.4936 10.44C56.4296 10.648 55.1976 16.504 55.1816 16.744C55.1656 16.984 55.2456 16.968 55.3256 16.984H57.1976C57.1976 16.984 57.3576 16.968 57.4216 16.696C57.4696 16.392 57.6456 15.672 57.6456 15.672C57.6456 15.672 57.6456 15.528 57.8216 15.48C57.9816 15.416 58.9416 15.048 59.3096 14.856C59.3096 14.856 60.1096 14.568 60.3816 14.44C60.6536 14.312 60.4936 14.408 60.5256 14.408C60.5736 14.408 60.9896 16.296 61.0856 16.68C61.1976 17.048 61.5976 18.984 61.6296 19.08C61.6616 19.192 61.7256 19.176 61.8056 19.144C61.8696 19.128 63.4696 18.44 63.5656 18.36C63.6616 18.28 63.7256 18.344 63.6616 18.072ZM59.9656 12.536C59.9176 12.568 58.5736 13.128 58.3816 13.176C58.1896 13.256 58.1896 13.176 58.1896 13.128C58.1896 13.08 58.3336 12.248 58.3976 11.912C58.4616 11.592 59.0856 8.61599 59.0856 8.61599C59.1016 8.55199 59.1336 8.61599 59.1656 8.69599C59.2776 8.90399 59.9976 11.992 60.0616 12.28C60.1256 12.568 60.0296 12.488 59.9656 12.536Z" fill="white"/>
<path d="M67.194 5.83199C67.194 5.83199 65.354 5.81599 65.226 5.81599C65.082 5.81599 65.05 5.78399 65.05 5.94399C65.066 6.08799 65.082 10.92 65.082 11.32C65.082 11.72 65.13 16.52 65.13 16.744C65.13 16.968 65.114 16.936 65.258 16.936C65.402 16.936 67.258 16.984 67.306 16.968C67.354 16.952 67.354 16.968 67.354 16.792C67.354 16.616 67.37 15.608 67.37 15.544C67.37 15.464 67.354 14.52 67.354 14.52C67.354 14.52 67.37 14.424 67.45 14.312C67.546 14.184 68.426 12.856 68.458 12.792C68.49 12.728 68.49 12.744 68.506 12.792C68.522 12.824 69.642 16.104 69.818 16.584C70.01 17.048 70.714 19.144 70.746 19.208C70.778 19.272 70.842 19.24 70.89 19.224C70.922 19.208 72.666 18.504 72.698 18.488C72.746 18.472 72.81 18.472 72.778 18.328C72.746 18.2 71.354 14.264 71.306 14.136C71.258 13.976 69.962 10.52 69.962 10.488C69.946 10.456 69.914 10.44 69.994 10.328C70.09 10.2 72.01 6.96799 72.122 6.79199C72.234 6.61599 72.57 6.03999 72.602 6.00799C72.618 5.97599 72.65 5.89599 72.618 5.86399C72.586 5.83199 72.506 5.81599 72.442 5.83199C72.378 5.83199 70.394 5.84799 70.282 5.84799C70.17 5.84799 70.138 5.86399 70.122 5.89599C70.106 5.92799 69.178 7.47999 69.098 7.60799C69.034 7.73599 67.418 10.36 67.386 10.392C67.386 10.392 67.338 10.408 67.338 10.36C67.338 10.312 67.322 8.26399 67.322 8.03999C67.322 7.81599 67.322 5.99199 67.322 5.94399C67.306 5.87999 67.322 5.83199 67.194 5.83199Z" fill="white"/>
<path d="M75.819 5.83199C75.819 5.83199 73.979 5.81599 73.851 5.81599C73.707 5.81599 73.675 5.78399 73.675 5.94399C73.691 6.08799 73.707 10.92 73.707 11.32C73.707 11.72 73.755 16.52 73.755 16.744C73.755 16.968 73.739 16.936 73.883 16.936C74.027 16.936 75.883 16.984 75.931 16.968C75.979 16.952 75.979 16.968 75.979 16.792C75.979 16.616 75.995 15.608 75.995 15.544C75.995 15.464 75.979 14.52 75.979 14.52C75.979 14.52 75.995 14.424 76.075 14.312C76.171 14.184 77.051 12.856 77.083 12.792C77.115 12.728 77.115 12.744 77.131 12.792C77.147 12.824 78.267 16.104 78.443 16.584C78.635 17.048 79.339 19.144 79.371 19.208C79.403 19.272 79.467 19.24 79.515 19.224C79.547 19.208 81.291 18.504 81.323 18.488C81.371 18.472 81.435 18.472 81.403 18.328C81.371 18.2 79.979 14.264 79.931 14.136C79.883 13.976 78.587 10.52 78.587 10.488C78.571 10.456 78.539 10.44 78.619 10.328C78.715 10.2 80.635 6.96799 80.747 6.79199C80.859 6.61599 81.195 6.03999 81.227 6.00799C81.243 5.97599 81.275 5.89599 81.243 5.86399C81.211 5.83199 81.131 5.81599 81.067 5.83199C81.003 5.83199 79.019 5.84799 78.907 5.84799C78.795 5.84799 78.763 5.86399 78.747 5.89599C78.731 5.92799 77.803 7.47999 77.723 7.60799C77.659 7.73599 76.043 10.36 76.011 10.392C76.011 10.392 75.963 10.408 75.963 10.36C75.963 10.312 75.947 8.26399 75.947 8.03999C75.947 7.81599 75.947 5.99199 75.947 5.94399C75.931 5.87999 75.947 5.83199 75.819 5.83199Z" fill="white"/>
<path d="M90.396 18.072C90.332 17.832 89.98 16.312 89.916 16.024C89.836 15.736 89.356 13.736 89.34 13.672C89.308 13.608 89.34 13.576 89.388 13.544C89.436 13.512 90.204 13.144 90.204 13.144C90.204 13.144 90.284 13.144 90.284 12.936C90.284 12.712 90.268 12.184 90.268 12.056C90.284 11.912 90.284 11.192 90.284 11.144C90.284 11.08 90.284 11.08 90.172 11.112C90.076 11.144 89.116 11.576 89.036 11.592C88.972 11.592 88.892 11.72 88.844 11.512C88.78 11.288 88.188 8.63199 88.124 8.39199C88.06 8.13599 87.612 6.10399 87.58 6.00799C87.564 5.89599 87.532 5.81599 87.356 5.81599C87.164 5.81599 85.5 5.83199 85.308 5.79999C85.1 5.78399 84.46 5.79999 84.38 5.79999C84.316 5.79999 84.236 5.81599 84.204 5.92799C84.172 6.02399 83.292 10.232 83.228 10.44C83.164 10.648 81.932 16.504 81.916 16.744C81.9 16.984 81.98 16.968 82.06 16.984H83.932C83.932 16.984 84.092 16.968 84.156 16.696C84.204 16.392 84.38 15.672 84.38 15.672C84.38 15.672 84.38 15.528 84.556 15.48C84.716 15.416 85.676 15.048 86.044 14.856C86.044 14.856 86.844 14.568 87.116 14.44C87.388 14.312 87.228 14.408 87.26 14.408C87.308 14.408 87.724 16.296 87.82 16.68C87.932 17.048 88.332 18.984 88.364 19.08C88.396 19.192 88.46 19.176 88.54 19.144C88.604 19.128 90.204 18.44 90.3 18.36C90.396 18.28 90.46 18.344 90.396 18.072ZM86.7 12.536C86.652 12.568 85.308 13.128 85.116 13.176C84.924 13.256 84.924 13.176 84.924 13.128C84.924 13.08 85.068 12.248 85.132 11.912C85.196 11.592 85.82 8.61599 85.82 8.61599C85.836 8.55199 85.868 8.61599 85.9 8.69599C86.012 8.90399 86.732 11.992 86.796 12.28C86.86 12.568 86.764 12.488 86.7 12.536Z" fill="white"/>
<path d="M94.286 5.78399C94.286 5.78399 91.774 5.79999 91.71 5.78399C91.63 5.78399 91.582 5.78399 91.582 5.86399C91.566 5.95999 91.55 11.208 91.582 12.328C91.582 12.328 91.566 16.76 91.582 16.872C91.598 16.984 91.582 16.984 91.646 16.984C91.71 16.984 93.63 17.016 93.71 16.984C93.774 16.952 93.774 16.952 93.774 16.888C93.79 16.824 93.79 10.392 93.79 10.344C93.806 10.312 93.838 10.152 93.902 10.344C93.982 10.536 95.022 12.808 95.47 13.944C95.87 15.032 96.382 16.2 96.686 16.936C96.686 16.936 96.686 17.016 96.846 17.016C97.006 17.016 98.974 17 99.118 16.968C99.246 16.936 99.23 17.016 99.23 16.84C99.23 16.648 99.198 11.096 99.182 10.392C99.166 9.73599 99.198 5.09599 99.23 4.61599L99.214 4.56799C99.214 4.56799 99.262 4.51999 99.038 4.42399C98.814 4.32799 97.358 3.75199 97.198 3.67199C97.198 3.67199 97.054 3.60799 97.054 3.76799C97.054 3.92799 97.038 6.61599 97.038 6.98399C97.038 7.36799 97.054 11.544 97.038 11.768C97.038 11.768 97.038 11.88 96.958 11.72C96.958 11.72 96.126 10.04 95.63 8.72799C95.102 7.41599 94.526 5.99199 94.51 5.92799C94.478 5.87999 94.462 5.78399 94.286 5.78399Z" fill="white"/>
<path d="M108.943 18.072C108.879 17.832 108.527 16.312 108.463 16.024C108.383 15.736 107.903 13.736 107.887 13.672C107.855 13.608 107.887 13.576 107.935 13.544C107.983 13.512 108.751 13.144 108.751 13.144C108.751 13.144 108.831 13.144 108.831 12.936C108.831 12.712 108.815 12.184 108.815 12.056C108.831 11.912 108.831 11.192 108.831 11.144C108.831 11.08 108.831 11.08 108.719 11.112C108.623 11.144 107.663 11.576 107.583 11.592C107.519 11.592 107.439 11.72 107.391 11.512C107.327 11.288 106.735 8.63199 106.671 8.39199C106.607 8.13599 106.159 6.10399 106.127 6.00799C106.111 5.89599 106.079 5.81599 105.903 5.81599C105.711 5.81599 104.047 5.83199 103.855 5.79999C103.647 5.78399 103.007 5.79999 102.927 5.79999C102.863 5.79999 102.783 5.81599 102.751 5.92799C102.719 6.02399 101.839 10.232 101.775 10.44C101.711 10.648 100.479 16.504 100.463 16.744C100.447 16.984 100.527 16.968 100.607 16.984H102.479C102.479 16.984 102.639 16.968 102.703 16.696C102.751 16.392 102.927 15.672 102.927 15.672C102.927 15.672 102.927 15.528 103.103 15.48C103.263 15.416 104.223 15.048 104.591 14.856C104.591 14.856 105.391 14.568 105.663 14.44C105.935 14.312 105.775 14.408 105.807 14.408C105.855 14.408 106.271 16.296 106.367 16.68C106.479 17.048 106.879 18.984 106.911 19.08C106.943 19.192 107.007 19.176 107.087 19.144C107.151 19.128 108.751 18.44 108.847 18.36C108.943 18.28 109.007 18.344 108.943 18.072ZM105.247 12.536C105.199 12.568 103.855 13.128 103.663 13.176C103.471 13.256 103.471 13.176 103.471 13.128C103.471 13.08 103.615 12.248 103.679 11.912C103.743 11.592 104.367 8.61599 104.367 8.61599C104.383 8.55199 104.415 8.61599 104.447 8.69599C104.559 8.90399 105.279 11.992 105.343 12.28C105.407 12.568 105.311 12.488 105.247 12.536Z" fill="white"/>
<path d="M110.774 5.81599C110.774 5.81599 108.998 5.79999 108.838 5.79999C108.71 5.79999 108.726 5.81599 108.758 5.94399C108.806 6.07199 111.334 12.872 111.398 13.064C111.398 13.064 111.478 13.24 111.478 13.352C111.478 13.48 111.462 18.888 111.462 19.016C111.462 19.128 111.446 19.24 111.638 19.192C111.814 19.16 113.542 18.488 113.606 18.456C113.654 18.424 113.654 18.456 113.67 18.296C113.67 18.296 113.59 13.672 113.638 13.272C113.638 13.272 113.654 13.16 113.798 12.776C113.942 12.376 116.63 5.22399 116.838 4.59999C116.838 4.59999 116.902 4.55199 116.71 4.43999C116.534 4.32799 115.174 3.70399 115.174 3.70399C115.174 3.70399 115.03 3.57599 114.95 3.76799C114.886 3.95999 112.742 9.76799 112.55 10.2C112.55 10.2 112.518 10.312 112.47 10.168C112.422 10.04 111.334 7.19199 110.902 5.91199C110.902 5.91199 110.87 5.81599 110.774 5.81599Z" fill="white"/>
<path d="M45.4 22.736C45.4 22.736 43.496 22.72 43.384 22.72C43.384 22.72 43.32 22.72 43.336 22.848C43.352 22.96 44.36 27.616 44.616 28.752C44.84 29.872 45.672 33.616 45.736 33.904C45.736 33.904 45.752 34 45.912 34C45.912 34 48.024 34.032 48.104 34.016C48.168 34 48.184 33.968 48.2 33.888C48.216 33.792 49.448 27.568 49.48 27.456C49.48 27.456 49.544 27.264 49.576 27.52C49.624 27.76 50.152 29.824 50.344 30.816C50.52 31.84 51 33.936 51 33.936C51 33.936 51 34.016 51.144 34.016C51.32 34.016 53.336 34.032 53.4 34.016C53.4 34.016 53.416 34.048 53.448 33.872C53.448 33.872 54.824 27.392 54.904 27.024C54.968 26.688 55.912 22.128 56.024 21.648C56.024 21.648 56.12 21.552 55.976 21.456C55.832 21.376 54.424 20.64 54.28 20.608C54.28 20.608 54.136 20.56 54.104 20.784C54.056 21.024 53.08 25.92 53 26.336C52.888 26.752 52.36 29.44 52.328 29.568C52.328 29.568 52.28 29.648 52.248 29.504C52.2 29.344 50.824 23.088 50.808 22.88C50.808 22.88 50.808 22.784 50.648 22.784C50.504 22.784 48.568 22.784 48.504 22.784C48.504 22.784 48.44 22.72 48.408 22.88C48.376 23.072 47.928 25.296 47.736 26.16C47.544 27.008 47.112 28.992 47.064 29.328C47.064 29.328 47 29.488 46.952 29.296C46.904 29.104 46.376 26.976 46.216 26.144C46.072 25.312 45.56 23.024 45.528 22.832C45.528 22.832 45.496 22.72 45.4 22.736Z" fill="white"/>
<path d="M63.6616 35.072C63.5976 34.832 63.2456 33.312 63.1816 33.024C63.1016 32.736 62.6216 30.736 62.6056 30.672C62.5736 30.608 62.6056 30.576 62.6536 30.544C62.7016 30.512 63.4696 30.144 63.4696 30.144C63.4696 30.144 63.5496 30.144 63.5496 29.936C63.5496 29.712 63.5336 29.184 63.5336 29.056C63.5496 28.912 63.5496 28.192 63.5496 28.144C63.5496 28.08 63.5496 28.08 63.4376 28.112C63.3416 28.144 62.3816 28.576 62.3016 28.592C62.2376 28.592 62.1576 28.72 62.1096 28.512C62.0456 28.288 61.4536 25.632 61.3896 25.392C61.3256 25.136 60.8776 23.104 60.8456 23.008C60.8296 22.896 60.7976 22.816 60.6216 22.816C60.4296 22.816 58.7656 22.832 58.5736 22.8C58.3656 22.784 57.7256 22.8 57.6456 22.8C57.5816 22.8 57.5016 22.816 57.4696 22.928C57.4376 23.024 56.5576 27.232 56.4936 27.44C56.4296 27.648 55.1976 33.504 55.1816 33.744C55.1656 33.984 55.2456 33.968 55.3256 33.984H57.1976C57.1976 33.984 57.3576 33.968 57.4216 33.696C57.4696 33.392 57.6456 32.672 57.6456 32.672C57.6456 32.672 57.6456 32.528 57.8216 32.48C57.9816 32.416 58.9416 32.048 59.3096 31.856C59.3096 31.856 60.1096 31.568 60.3816 31.44C60.6536 31.312 60.4936 31.408 60.5256 31.408C60.5736 31.408 60.9896 33.296 61.0856 33.68C61.1976 34.048 61.5976 35.984 61.6296 36.08C61.6616 36.192 61.7256 36.176 61.8056 36.144C61.8696 36.128 63.4696 35.44 63.5656 35.36C63.6616 35.28 63.7256 35.344 63.6616 35.072ZM59.9656 29.536C59.9176 29.568 58.5736 30.128 58.3816 30.176C58.1896 30.256 58.1896 30.176 58.1896 30.128C58.1896 30.08 58.3336 29.248 58.3976 28.912C58.4616 28.592 59.0856 25.616 59.0856 25.616C59.1016 25.552 59.1336 25.616 59.1656 25.696C59.2776 25.904 59.9976 28.992 60.0616 29.28C60.1256 29.568 60.0296 29.488 59.9656 29.536Z" fill="white"/>
<path d="M67.21 22.8C67.098 22.784 65.194 22.8 65.146 22.8C65.082 22.8 65.05 22.816 65.05 22.944C65.066 23.056 65.114 27.568 65.114 28.208C65.13 28.88 65.13 33.792 65.162 33.904C65.162 33.904 65.098 34 65.242 34C65.37 34 68.41 34.032 68.634 34.032C68.842 34.032 70.954 33.968 71.018 33.984C71.082 33.984 71.146 33.984 71.13 33.888C71.13 33.888 71.098 32.32 71.098 32.128C71.098 32.128 71.13 32 71.002 32C70.874 32 67.482 32 67.402 32C67.322 31.984 67.37 31.952 67.354 31.904C67.338 31.872 67.354 30.56 67.354 30.496C67.354 30.448 67.306 26.944 67.322 26.72C67.338 26.48 67.306 23.104 67.306 23.04C67.306 22.96 67.306 22.8 67.21 22.8Z" fill="white"/>
<path d="M74.4288 22.8C74.3168 22.784 72.4128 22.8 72.3648 22.8C72.3008 22.8 72.2688 22.816 72.2688 22.944C72.2848 23.056 72.3328 27.568 72.3328 28.208C72.3488 28.88 72.3488 33.792 72.3808 33.904C72.3808 33.904 72.3168 34 72.4608 34C72.5888 34 75.6288 34.032 75.8528 34.032C76.0608 34.032 78.1728 33.968 78.2368 33.984C78.3008 33.984 78.3648 33.984 78.3488 33.888C78.3488 33.888 78.3168 32.32 78.3168 32.128C78.3168 32.128 78.3488 32 78.2208 32C78.0928 32 74.7008 32 74.6208 32C74.5408 31.984 74.5888 31.952 74.5728 31.904C74.5568 31.872 74.5728 30.56 74.5728 30.496C74.5728 30.448 74.5248 26.944 74.5408 26.72C74.5568 26.48 74.5248 23.104 74.5248 23.04C74.5248 22.96 74.5248 22.8 74.4288 22.8Z" fill="white"/>
<path d="M86.5275 22.832C86.5275 22.832 83.8075 22.832 83.3595 22.816C82.8795 22.816 79.6955 22.8 79.5995 22.816C79.4875 22.816 79.4875 22.864 79.4875 22.944C79.4875 23.024 79.5035 26.384 79.5035 26.688C79.5035 27.008 79.5195 30.64 79.5035 30.88C79.5035 31.104 79.5355 33.312 79.5355 33.888C79.5355 33.888 79.5355 33.968 79.6315 33.968C79.7435 33.984 83.1995 33.984 83.4875 33.984C83.7595 34 86.5595 33.984 86.6075 33.968C86.6715 33.968 86.7195 33.952 86.7195 33.792C86.7355 33.632 86.7035 32.24 86.7035 32.144C86.7035 32.032 86.7355 31.936 86.5915 31.936C86.4635 31.92 83.9355 31.936 83.7275 31.936C83.5195 31.92 82.0315 31.92 81.9355 31.936C81.8235 31.936 81.8395 31.968 81.8235 31.84C81.8235 31.712 81.7755 30.24 81.7755 30.176C81.7755 30.176 81.7755 30.112 81.8235 30.096C81.8715 30.064 84.0475 29.152 84.3515 29.04C84.6555 28.928 84.8795 28.848 84.8795 28.72C84.8795 28.576 84.8635 27.216 84.8635 27.072C84.8635 26.928 84.8635 26.864 84.8475 26.8C84.8315 26.768 84.7515 26.832 84.6395 26.864C84.6395 26.864 82.6235 27.712 82.3995 27.792C82.1755 27.872 81.9035 27.984 81.9035 27.984C81.9035 27.984 81.7595 28.112 81.7755 27.776C81.7755 27.44 81.7595 25.92 81.7595 25.744C81.7595 25.568 81.7275 25.072 81.7275 25.024C81.7275 24.96 81.6795 24.912 81.8715 24.896C82.0475 24.896 85.1675 24.96 85.5835 24.928C85.9835 24.912 86.5435 24.96 86.6075 24.896C86.6555 24.816 86.6395 24.496 86.6395 24.32C86.6395 24.16 86.6395 23.04 86.6395 22.928C86.6235 22.816 86.5275 22.832 86.5275 22.832Z" fill="white"/>
<path d="M88.0273 23.424C88.0273 23.424 87.9473 23.376 87.9473 23.6C87.9473 23.84 87.9313 25.296 87.9633 25.456C87.9633 25.456 87.9313 25.584 88.1073 25.52C88.2993 25.456 90.2193 24.64 90.2833 24.624C90.2833 24.624 90.3473 24.544 90.3473 24.752C90.3473 24.944 90.3793 28.848 90.3633 29.648C90.3473 30.464 90.3473 33.664 90.3633 33.84C90.3633 33.84 90.3313 33.968 90.4593 33.984C90.5873 33.984 91.5153 34.016 91.6753 34.032C91.8353 34.032 92.4273 34.032 92.4433 34.016C92.4593 34.016 92.5233 34.032 92.5233 33.92C92.5233 33.776 92.5233 29.856 92.5233 29.472C92.5233 29.088 92.5073 23.952 92.5233 23.744C92.5233 23.744 92.5233 23.696 92.6193 23.648C92.6993 23.6 94.6353 22.832 94.6673 22.8C94.7153 22.768 94.7473 22.784 94.7473 22.72C94.7473 22.656 94.7473 20.848 94.7473 20.768C94.7473 20.688 94.6993 20.704 94.6513 20.72C94.6033 20.72 88.2993 23.296 88.0273 23.424Z" fill="white"/>
<path d="M36 18C36 27.9411 27.9411 36 18 36C8.05887 36 0 27.9411 0 18C0 8.05887 8.05887 0 18 0C27.9411 0 36 8.05887 36 18Z" fill="white"/>
<path d="M8.85793 22.613C9.04304 23.1709 9.79176 23.266 10.1105 22.7721L11.343 20.8622C11.6187 20.4349 12.2436 20.4349 12.5193 20.8622L13.7518 22.7721C14.0705 23.266 14.8192 23.1709 15.0044 22.613L17.5568 14.9204C17.7072 14.4674 17.3698 14 16.8925 14H6.96982C6.49243 14 6.1551 14.4674 6.30544 14.9204L8.85793 22.613Z" fill="url(#paint0_linear)"/>
<path d="M20.9957 22.613C21.1808 23.1709 21.9295 23.266 22.2482 22.7721L23.4807 20.8622C23.7565 20.4349 24.3814 20.4349 24.6571 20.8622L25.8896 22.7721C26.2083 23.266 26.957 23.1709 27.1421 22.613L29.6946 14.9204C29.845 14.4674 29.5076 14 29.0302 14H19.1076C18.6302 14 18.2929 14.4674 18.4432 14.9204L20.9957 22.613Z" fill="url(#paint1_linear)"/>
<defs>
<linearGradient id="paint0_linear" x1="7.15788" y1="12.0335" x2="28.2231" y2="23.7644" gradientUnits="userSpaceOnUse">
<stop stop-color="#EC8383"/>
<stop offset="1" stop-color="#C13087"/>
</linearGradient>
<linearGradient id="paint1_linear" x1="7.15788" y1="12.0335" x2="28.2231" y2="23.7644" gradientUnits="userSpaceOnUse">
<stop stop-color="#EC8383"/>
<stop offset="1" stop-color="#C13087"/>
</linearGradient>
</defs>
</svg>
