<svg width="159" height="25" viewBox="0 0 159 25" fill="none" xmlns="http://www.w3.org/2000/svg">
<path d="M19.9661 4.984C19.9101 1.792 17.6701 0 14.6181 0C9.80211 0 5.54611 3.948 3.19411 7.784C2.13011 9.492 1.34611 11.34 0.702107 13.244C0.226107 14.616 -0.0258928 16.1 0.00210703 17.556C0.0581071 21.308 2.21411 24.808 6.33011 24.808C8.03811 24.808 9.71811 24.192 11.1741 23.324C13.7781 21.812 14.8701 20.216 15.8501 17.416C16.0741 16.744 16.1861 16.044 16.1861 15.316C16.1301 12.88 14.4221 10.668 11.8461 10.668C9.63411 10.668 7.22611 12.32 7.28211 14.7C7.31011 16.632 9.10211 17.472 10.8381 17.472C11.7061 17.472 12.7701 17.136 12.7421 16.072C12.7421 15.484 12.3221 14.784 11.6781 14.784C11.3701 14.784 11.0901 14.952 10.8941 15.148H10.6981C10.3061 15.148 9.83011 15.064 9.57811 14.784C9.63411 13.664 10.7261 13.048 11.7621 13.048C13.0221 13.048 13.9181 13.86 13.9461 15.12C13.9741 15.652 13.8341 16.128 13.6661 16.604C12.9101 18.9 12.1261 20.104 9.99811 21.336C8.93411 21.98 7.67411 22.456 6.41411 22.456C3.69811 22.456 2.18611 20.272 2.13011 17.752C2.04611 12.292 8.29011 2.912 13.9741 2.296C14.1421 2.268 14.3101 2.268 14.4781 2.268C16.2981 2.268 17.6421 3.108 17.6701 5.068C17.6701 5.656 17.5581 6.244 17.4181 6.804C17.3901 6.944 17.3621 7.056 17.3621 7.196C17.3901 7.84 17.9501 8.288 18.5661 8.288C19.1261 8.288 19.4621 7.98 19.6301 7.476C19.8821 6.692 19.9941 5.796 19.9661 4.984Z" fill="#00E6CC"/>
<path d="M23.9528 21.392C24.0368 22.288 23.8968 23.66 25.1568 23.66C25.7728 23.66 26.3888 23.24 26.3608 22.568V22.372L25.1288 10.808C25.0728 10.22 24.7368 9.66 24.1208 9.66C23.6448 9.66 23.2248 10.024 23.0008 10.444C22.2728 11.788 16.1688 22.652 16.1408 23.38C16.1128 23.968 16.6728 24.472 17.2888 24.472C17.7088 24.472 18.2128 24.276 18.4648 23.52C18.7728 22.708 19.3888 21.812 19.5848 21.392H23.9528ZM23.2248 14.7L23.7288 19.152H20.8168L23.2248 14.7Z" fill="#00E6CC"/>
<path d="M31.2118 21.28L38.5478 12.012C38.7438 11.76 38.8278 11.452 38.8558 11.116C38.8838 10.472 38.4638 9.94 37.7638 9.94H31.5758C30.9038 9.94 30.3998 10.416 30.3718 11.06C30.3438 11.732 30.8198 12.18 31.4918 12.18H35.5518L28.0198 21.728C27.8518 21.98 27.6838 22.26 27.6838 22.568C27.6558 23.24 28.2998 23.52 28.8878 23.52H34.8238C35.4398 23.52 35.9438 23.072 35.9718 22.4C35.9998 21.728 35.5238 21.28 34.8798 21.28H31.2118Z" fill="#00E6CC"/>
<path d="M42.7106 12.18H47.9746C48.6466 12.18 49.1226 11.732 49.1506 11.06C49.1786 10.416 48.7026 9.94 48.0586 9.94H41.8706C41.3666 9.94 40.8346 10.416 40.6946 10.892C40.1346 12.964 39.7706 15.148 39.2946 17.276C38.9026 18.984 38.3426 20.776 38.1466 22.512L38.1186 22.708C38.0906 23.296 38.7626 23.52 39.2946 23.52H45.5666C46.2106 23.52 46.7426 23.072 46.7426 22.4C46.7426 21.728 46.2946 21.28 45.6506 21.28H40.7506L41.4226 18.144H45.7906C46.4626 18.144 46.9666 17.668 46.9946 17.024C47.0226 16.352 46.5466 15.904 45.8746 15.904H41.9266L42.7106 12.18Z" fill="#00E6CC"/>
<path d="M49.8323 23.52H56.5243C57.1683 23.52 57.6723 23.072 57.7003 22.4C57.7003 21.728 57.2243 21.28 56.6083 21.28H51.6243L53.8083 11.256L53.8363 11.032C53.8643 10.388 53.3323 9.94 52.7163 9.94C52.1283 9.94 51.7363 10.304 51.5963 10.892C51.1763 12.432 50.8963 14.056 50.5603 15.624C50.0843 17.892 49.5523 20.104 49.1323 22.372C49.1043 22.512 49.0763 22.652 49.0763 22.764C49.0483 23.296 49.3283 23.52 49.8323 23.52Z" fill="#00E6CC"/>
<path d="M60.3191 23.52H67.0111C67.6551 23.52 68.1591 23.072 68.1871 22.4C68.1871 21.728 67.7111 21.28 67.0951 21.28H62.1111L64.2951 11.256L64.3231 11.032C64.3511 10.388 63.8191 9.94 63.2031 9.94C62.6151 9.94 62.2231 10.304 62.0831 10.892C61.6631 12.432 61.3831 14.056 61.0471 15.624C60.5711 17.892 60.0391 20.104 59.6191 22.372C59.5911 22.512 59.5631 22.652 59.5631 22.764C59.5351 23.296 59.8151 23.52 60.3191 23.52Z" fill="#00E6CC"/>
<path d="M74.11 12.18H79.374C80.046 12.18 80.522 11.732 80.55 11.06C80.578 10.416 80.102 9.94 79.458 9.94H73.27C72.766 9.94 72.234 10.416 72.094 10.892C71.534 12.964 71.17 15.148 70.694 17.276C70.302 18.984 69.742 20.776 69.546 22.512L69.518 22.708C69.49 23.296 70.162 23.52 70.694 23.52H76.966C77.61 23.52 78.142 23.072 78.142 22.4C78.142 21.728 77.694 21.28 77.05 21.28H72.15L72.822 18.144H77.19C77.862 18.144 78.366 17.668 78.394 17.024C78.422 16.352 77.946 15.904 77.274 15.904H73.326L74.11 12.18Z" fill="#00E6CC"/>
<path d="M109.502 3.752C109.502 3.108 108.886 2.604 108.27 2.604C107.85 2.604 107.57 2.856 107.346 3.192C107.038 3.64 106.786 4.144 106.534 4.62C105.918 5.712 105.33 6.832 104.742 7.952C102.95 11.284 101.27 14.672 99.59 18.06C99.646 16.072 99.674 14.112 99.758 12.124C99.786 10.976 99.898 9.828 99.898 8.68V8.596C99.898 7.84 99.114 7.364 98.442 7.364C97.91 7.364 97.546 7.588 97.322 8.064C96.93 8.876 96.622 9.744 96.23 10.584C95.278 12.628 94.158 14.616 92.982 16.52C92.702 16.94 92.422 17.36 92.086 17.752C92.758 15.204 93.234 12.516 93.178 9.856C93.15 7.252 92.534 4.256 90.434 2.464C89.706 1.848 88.586 1.484 87.662 1.484C86.682 1.484 85.282 2.1 85.31 3.248C85.31 3.892 85.926 4.368 86.542 4.368C86.962 4.368 87.298 4.144 87.494 3.78H87.578C90.462 3.78 90.742 7.784 90.77 9.884C90.826 12.04 90.462 16.1 89.734 18.144C89.286 19.376 88.474 20.58 88.502 21.952C88.53 22.82 89.174 23.268 90.014 23.268C90.854 23.268 91.33 22.232 91.806 21.644C92.674 20.58 93.57 19.488 94.382 18.368C95.53 16.772 96.51 15.064 97.406 13.3C97.378 14.98 97.35 16.688 97.266 18.368C97.21 19.964 96.93 21.56 96.93 23.184V23.296C96.93 24.024 97.602 24.444 98.274 24.444C98.806 24.444 99.142 24.248 99.366 23.772C99.506 23.548 99.618 23.24 99.73 22.988L100.794 20.86L104.462 13.44C105.47 11.368 106.506 9.352 107.626 7.364C108.158 6.384 108.858 5.32 109.334 4.368C109.446 4.144 109.502 3.976 109.502 3.752Z" fill="#00E6CC"/>
<path d="M111.326 21.392C111.41 22.288 111.27 23.66 112.53 23.66C113.146 23.66 113.762 23.24 113.734 22.568V22.372L112.502 10.808C112.446 10.22 112.11 9.66 111.494 9.66C111.018 9.66 110.598 10.024 110.374 10.444C109.646 11.788 103.542 22.652 103.514 23.38C103.486 23.968 104.046 24.472 104.662 24.472C105.082 24.472 105.586 24.276 105.838 23.52C106.146 22.708 106.762 21.812 106.958 21.392H111.326ZM110.598 14.7L111.102 19.152H108.19L110.598 14.7Z" fill="#00E6CC"/>
<path d="M116.177 23.52H122.869C123.513 23.52 124.017 23.072 124.045 22.4C124.045 21.728 123.569 21.28 122.953 21.28H117.969L120.153 11.256L120.181 11.032C120.209 10.388 119.677 9.94 119.061 9.94C118.473 9.94 118.081 10.304 117.941 10.892C117.521 12.432 117.241 14.056 116.905 15.624C116.429 17.892 115.897 20.104 115.477 22.372C115.449 22.512 115.421 22.652 115.421 22.764C115.393 23.296 115.673 23.52 116.177 23.52Z" fill="#00E6CC"/>
<path d="M126.384 23.52H133.076C133.72 23.52 134.224 23.072 134.252 22.4C134.252 21.728 133.776 21.28 133.16 21.28H128.176L130.36 11.256L130.388 11.032C130.416 10.388 129.884 9.94 129.268 9.94C128.68 9.94 128.288 10.304 128.148 10.892C127.728 12.432 127.448 14.056 127.112 15.624C126.636 17.892 126.104 20.104 125.684 22.372C125.656 22.512 125.628 22.652 125.628 22.764C125.6 23.296 125.88 23.52 126.384 23.52Z" fill="#00E6CC"/>
<path d="M140.175 12.18H145.439C146.111 12.18 146.587 11.732 146.615 11.06C146.643 10.416 146.167 9.94 145.523 9.94H139.335C138.831 9.94 138.299 10.416 138.159 10.892C137.599 12.964 137.235 15.148 136.759 17.276C136.367 18.984 135.807 20.776 135.611 22.512L135.583 22.708C135.555 23.296 136.227 23.52 136.759 23.52H143.031C143.675 23.52 144.207 23.072 144.207 22.4C144.207 21.728 143.759 21.28 143.115 21.28H138.215L138.887 18.144H143.255C143.927 18.144 144.431 17.668 144.459 17.024C144.487 16.352 144.011 15.904 143.339 15.904H139.391L140.175 12.18Z" fill="#00E6CC"/>
<path d="M153.848 12.18H157.04C157.684 12.18 158.104 11.536 158.104 10.92C158.104 10.416 157.852 9.94 157.292 9.94H148.808C148.108 9.94 147.604 10.5 147.604 11.2C147.576 11.76 147.996 12.18 148.528 12.18H151.552L149.34 22.344L149.284 22.596C149.284 23.24 149.816 23.688 150.432 23.688C150.992 23.688 151.44 23.296 151.552 22.736L153.848 12.18Z" fill="#00E6CC"/>
</svg>
