<svg width="82" height="82" viewBox="0 0 82 82" fill="none" xmlns="http://www.w3.org/2000/svg">
<circle cx="41" cy="41" r="41" fill="#DBD6DF"/>
<path d="M20.7642 53.2797C20.9493 53.8376 21.698 53.9327 22.0168 53.4388L26.5881 46.3549C26.8638 45.9276 27.4887 45.9276 27.7644 46.3549L32.3358 53.4388C32.6545 53.9327 33.4032 53.8376 33.5883 53.2797L40.3806 32.8094C40.531 32.3563 40.1936 31.8889 39.7162 31.8889H14.6363C14.1589 31.8889 13.8216 32.3563 13.9719 32.8094L20.7642 53.2797Z" fill="white"/>
<path d="M48.4113 53.2797C48.5965 53.8376 49.3452 53.9327 49.6639 53.4388L54.2352 46.3549C54.511 45.9276 55.1359 45.9276 55.4116 46.3549L59.9829 53.4388C60.3016 53.9327 61.0504 53.8376 61.2355 53.2797L68.0278 32.8094C68.1781 32.3563 67.8408 31.8889 67.3634 31.8889H42.2834C41.8061 31.8889 41.4687 32.3563 41.6191 32.8094L48.4113 53.2797Z" fill="white"/>
</svg>
