<svg width="82" height="82" viewBox="0 0 82 82" fill="none" xmlns="http://www.w3.org/2000/svg">
<circle cx="41" cy="41" r="41" fill="#DBD6DF"/>
<path d="M38.2205 33.464C38.1645 30.272 35.9245 28.48 32.8725 28.48C28.0565 28.48 23.8005 32.428 21.4485 36.264C20.3845 37.972 19.6005 39.82 18.9565 41.724C18.4805 43.096 18.2285 44.58 18.2565 46.036C18.3125 49.788 20.4685 53.288 24.5845 53.288C26.2925 53.288 27.9725 52.672 29.4285 51.804C32.0325 50.292 33.1245 48.696 34.1045 45.896C34.3285 45.224 34.4405 44.524 34.4405 43.796C34.3845 41.36 32.6765 39.148 30.1005 39.148C27.8885 39.148 25.4805 40.8 25.5365 43.18C25.5645 45.112 27.3565 45.952 29.0925 45.952C29.9605 45.952 31.0245 45.616 30.9965 44.552C30.9965 43.964 30.5765 43.264 29.9325 43.264C29.6245 43.264 29.3445 43.432 29.1485 43.628H28.9525C28.5605 43.628 28.0845 43.544 27.8325 43.264C27.8885 42.144 28.9805 41.528 30.0165 41.528C31.2765 41.528 32.1725 42.34 32.2005 43.6C32.2285 44.132 32.0885 44.608 31.9205 45.084C31.1645 47.38 30.3805 48.584 28.2525 49.816C27.1885 50.46 25.9285 50.936 24.6685 50.936C21.9525 50.936 20.4405 48.752 20.3845 46.232C20.3005 40.772 26.5445 31.392 32.2285 30.776C32.3965 30.748 32.5645 30.748 32.7325 30.748C34.5525 30.748 35.8965 31.588 35.9245 33.548C35.9245 34.136 35.8125 34.724 35.6725 35.284C35.6445 35.424 35.6165 35.536 35.6165 35.676C35.6445 36.32 36.2045 36.768 36.8205 36.768C37.3805 36.768 37.7165 36.46 37.8845 35.956C38.1365 35.172 38.2485 34.276 38.2205 33.464Z" fill="white"/>
<path d="M64.5792 32.232C64.5792 31.588 63.9632 31.084 63.3472 31.084C62.9272 31.084 62.6472 31.336 62.4232 31.672C62.1152 32.12 61.8632 32.624 61.6112 33.1C60.9952 34.192 60.4072 35.312 59.8192 36.432C58.0272 39.764 56.3472 43.152 54.6672 46.54C54.7232 44.552 54.7512 42.592 54.8352 40.604C54.8632 39.456 54.9752 38.308 54.9752 37.16V37.076C54.9752 36.32 54.1912 35.844 53.5192 35.844C52.9872 35.844 52.6232 36.068 52.3992 36.544C52.0072 37.356 51.6992 38.224 51.3072 39.064C50.3552 41.108 49.2352 43.096 48.0592 45C47.7792 45.42 47.4992 45.84 47.1632 46.232C47.8352 43.684 48.3112 40.996 48.2552 38.336C48.2272 35.732 47.6112 32.736 45.5112 30.944C44.7832 30.328 43.6632 29.964 42.7392 29.964C41.7592 29.964 40.3592 30.58 40.3872 31.728C40.3872 32.372 41.0032 32.848 41.6192 32.848C42.0392 32.848 42.3752 32.624 42.5712 32.26H42.6552C45.5392 32.26 45.8192 36.264 45.8472 38.364C45.9032 40.52 45.5392 44.58 44.8112 46.624C44.3632 47.856 43.5512 49.06 43.5792 50.432C43.6072 51.3 44.2512 51.748 45.0912 51.748C45.9312 51.748 46.4072 50.712 46.8832 50.124C47.7512 49.06 48.6472 47.968 49.4592 46.848C50.6072 45.252 51.5872 43.544 52.4832 41.78C52.4552 43.46 52.4272 45.168 52.3432 46.848C52.2872 48.444 52.0072 50.04 52.0072 51.664V51.776C52.0072 52.504 52.6792 52.924 53.3512 52.924C53.8832 52.924 54.2192 52.728 54.4432 52.252C54.5832 52.028 54.6952 51.72 54.8072 51.468L55.8712 49.34L59.5392 41.92C60.5472 39.848 61.5832 37.832 62.7032 35.844C63.2352 34.864 63.9352 33.8 64.4112 32.848C64.5232 32.624 64.5792 32.456 64.5792 32.232Z" fill="white"/>
</svg>
