<svg width="18" height="20" viewBox="0 0 18 20" fill="none" xmlns="http://www.w3.org/2000/svg">
<path fill-rule="evenodd" clip-rule="evenodd" d="M0.00380416 5.00328L9.0038 0L18 4.99684L17.9961 14.9967L8.99615 20L0 15.0032L0.00380416 5.00328ZM1.07037 5.59378L9.00336 1.18184L16.933 5.58811L16.9296 14.4063L8.99654 18.8183L1.06701 14.412L1.07037 5.59378ZM9.03774 3.53008L7.44588 4.37147V16.9419L6.37887 16.28V3.74718L9.03774 2.2369L12.3402 4.10615L11.6907 5.06335L9.03774 3.53008ZM14.8454 6.84966V14.7472L13.6756 15.3972L13.6729 6.21016L12.2474 5.33153L12.8273 4.44166L16.3636 6.58915L16.3642 7.84581L14.8454 6.84966ZM4.61076 15.3324L2.94588 9.27549V14.4072L2.00452 13.8841L2.00751 6.56688L2.98763 6.02182L4.26804 10.2342V5.08674L5.42783 4.44171V15.7864L4.61076 15.3324ZM7.452 9.34238H11.4588V10.6133H7.452V9.34238Z" fill="white"/>
</svg>
