<svg width="19" height="21" viewBox="0 0 19 21" fill="none" xmlns="http://www.w3.org/2000/svg">
<path d="M1 13.9516H3.79159V20H1V15.5521" stroke="white" stroke-linecap="round" stroke-linejoin="round"/>
<path d="M5.29158 14.7777L6.11789 13.9513C6.11789 13.9513 9.44518 12.913 10.3464 12.6606C11.2476 12.4083 11.464 13.8761 10.9953 14.1336C10.5266 14.391 9.14211 15.1461 9.14211 15.1461L9.37474 16.2776H14.0274C14.0274 16.2776 15.4774 15.541 16.0902 15.2526C16.7031 14.9642 17.8519 15.3608 18.2148 15.8294C17.3159 16.4422 14.4927 18.604 14.4927 18.604L9.37474 19.5345L4.25684 19.3624" stroke="white" stroke-linecap="round" stroke-linejoin="round"/>
<path d="M9.83997 5.18738V3.79159C9.83997 3.66819 9.88898 3.54985 9.97624 3.4626C10.0635 3.37534 10.1818 3.32632 10.3052 3.32632H15.8884C16.0118 3.32632 16.1301 3.37534 16.2174 3.4626C16.3046 3.54985 16.3537 3.66819 16.3537 3.79159V5.18738C16.3537 5.31078 16.3046 5.42912 16.2174 5.51637C16.1301 5.60363 16.0118 5.65265 15.8884 5.65265" stroke="white" stroke-linecap="round" stroke-linejoin="round"/>
<path d="M14.9579 6.1179V7.5137" stroke="white" stroke-linecap="round" stroke-linejoin="round"/>
<path d="M9.84001 7.97896H8.90948C8.78608 7.97896 8.66774 7.92994 8.58049 7.84269C8.49323 7.75544 8.44421 7.63709 8.44421 7.5137V6.11791C8.44421 5.99451 8.49323 5.87617 8.58049 5.78891C8.66774 5.70166 8.78608 5.65264 8.90948 5.65264H12.8882" stroke="white" stroke-linecap="round" stroke-linejoin="round"/>
<path d="M15.8884 7.97897H10.3052C10.0483 7.97897 9.83997 8.18727 9.83997 8.44423V9.84002C9.83997 10.097 10.0483 10.3053 10.3052 10.3053H15.8884C16.1454 10.3053 16.3537 10.097 16.3537 9.84002V8.44423C16.3537 8.18727 16.1454 7.97897 15.8884 7.97897Z" stroke="white" stroke-linecap="round" stroke-linejoin="round"/>
<path d="M11.2358 1H14.4927C14.6161 1 14.7344 1.04902 14.8217 1.13627C14.9089 1.22353 14.958 1.34187 14.958 1.46526V2.86106" stroke="white" stroke-linecap="round" stroke-linejoin="round"/>
<path d="M10.3053 3.32632H8.90948C8.78608 3.32632 8.66774 3.2773 8.58049 3.19005C8.49323 3.10279 8.44421 2.98445 8.44421 2.86106V1.46526C8.44421 1.34187 8.49323 1.22353 8.58049 1.13627C8.66774 1.04902 8.78608 1 8.90948 1H9.37474" stroke="white" stroke-linecap="round" stroke-linejoin="round"/>
<path d="M15.8885 5.65264H14.4927" stroke="white" stroke-linecap="round" stroke-linejoin="round"/>
</svg>
