<svg width="18" height="18" viewBox="0 0 18 18" fill="none" xmlns="http://www.w3.org/2000/svg">
<path d="M4.5 17C6.433 17 8 15.433 8 13.5C8 11.567 6.433 10 4.5 10C2.567 10 1 11.567 1 13.5C1 15.433 2.567 17 4.5 17Z" stroke="white" stroke-linecap="round" stroke-linejoin="round"/>
<path d="M13.5 8C15.433 8 17 6.433 17 4.5C17 2.567 15.433 1 13.5 1C11.567 1 10 2.567 10 4.5C10 6.433 11.567 8 13.5 8Z" stroke="white" stroke-linecap="round" stroke-linejoin="round"/>
<path d="M2.07068 8.00155C2.2751 6.58754 2.90692 5.26981 3.88142 4.22504C4.85593 3.18026 6.12655 2.45837 7.52293 2.15615" stroke="white" stroke-linecap="round" stroke-linejoin="round"/>
<path d="M15.8365 10.5108C15.5299 11.9073 14.8086 13.1785 13.7671 14.158C12.7257 15.1375 11.4126 15.7795 10 16" stroke="white" stroke-linecap="round" stroke-linejoin="round"/>
<path d="M6.5 1L8 2L6.952 3.6655" stroke="white" stroke-linecap="round" stroke-linejoin="round"/>
<path d="M11.5 17L10 16L11.048 14.3345" stroke="white" stroke-linecap="round" stroke-linejoin="round"/>
</svg>
